<?xml version="1.0" encoding="utf-8"?>
<!-- Generator: Adobe Illustrator 21.0.0, SVG Export Plug-In . SVG Version: 6.00 Build 0)  -->
<svg xmlns="http://www.w3.org/2000/svg" xmlns:xlink="http://www.w3.org/1999/xlink" version="1.1" id="Layer_1" x="0px" y="0px" viewBox="0 0 256 256" style="enable-background:new 0 0 256 256;" xml:space="preserve" width="512" height="512">
<style type="text/css">
	.st0{fill:#FFCD29;}
	.st1{fill:#6DCC6D;}
	.st2{fill:#F45D64;}
	.st3{fill:#60BAE2;}
	.st4{fill:#FCD770;}
	.st5{fill:#231F20;}
</style>
<g id="Layer_27">
	<path class="st0" d="M84.7,232.2h80.2v-64.8c-9.5,19.8-23.6,32.9-44.2,22.9c-16.9-8.2-28.3-56.9-35.9-113L84.7,232.2z"/>
	<path class="st1" d="M164.8,232.2h75.7c-23.7,0-37.7-37.9-45.9-69.1c-5.4-20.4-18.9-23-25.9-4.8c-1.2,3.1-2.5,6.1-3.9,9   L164.8,232.2z"/>
	<path class="st2" d="M84.7,77.2c-0.7-5.5-1.5-11-2.1-16.5C81.1,48.6,76,44.8,70.1,44.8l0,0c-5.9,0-11,3.8-12.4,15.9   C41,202.1,8.6,232.2,8.6,232.2h76.1V77.2z"/>
	<path class="st3" d="M239.6,169.8h-1.8v-1.8c0-1.4-1.1-2.5-2.5-2.5s-2.5,1.1-2.5,2.5v1.8h-1.8c-1.4,0-2.5,1.1-2.5,2.5   s1.1,2.5,2.5,2.5h1.8v1.8c0,1.4,1.1,2.5,2.5,2.5s2.5-1.1,2.5-2.5v-1.8h1.8c1.4,0,2.5-1.1,2.5-2.5S241,169.8,239.6,169.8z"/>
	<path class="st2" d="M43.9,43.1h-1.3v-1.3c0-0.9-0.8-1.7-1.7-1.7c-0.9,0-1.6,0.8-1.7,1.7v1.3H38c-0.9,0-1.7,0.8-1.7,1.7   c0,0.9,0.8,1.6,1.7,1.7h1.3v1.3c0,0.9,0.8,1.7,1.7,1.7c0.9,0,1.6-0.8,1.7-1.7v-1.3h1.3c0.9,0,1.7-0.8,1.7-1.7   C45.6,43.9,44.8,43.2,43.9,43.1z"/>
	<path class="st4" d="M111,44.3c0-0.2-0.1-0.3-0.1-0.5c-0.1-0.1-0.1-0.3-0.2-0.4c-0.1-0.1-0.2-0.3-0.3-0.4c-1-0.9-2.5-0.9-3.5,0   c-0.1,0.1-0.2,0.2-0.3,0.4c-0.2,0.3-0.3,0.6-0.4,0.9c-0.1,0.3-0.1,0.7,0,1c0,0.2,0.1,0.3,0.1,0.5c0.1,0.2,0.1,0.3,0.2,0.4   c0.1,0.1,0.2,0.3,0.3,0.4c1,1,2.5,1,3.5,0c0,0,0,0,0,0c0.1-0.1,0.2-0.2,0.3-0.4c0.1-0.1,0.2-0.3,0.2-0.4c0.1-0.1,0.1-0.3,0.1-0.5   C111,45,111,44.7,111,44.3z"/>
	<path class="st4" d="M226.5,187.3c0-0.2-0.1-0.3-0.1-0.5c-0.1-0.1-0.1-0.3-0.2-0.4c-0.1-0.1-0.2-0.3-0.3-0.4c-1-0.9-2.5-0.9-3.5,0   c-0.1,0.1-0.2,0.2-0.3,0.4c-0.2,0.3-0.3,0.6-0.4,0.9c-0.1,0.3-0.1,0.7,0,1c0,0.2,0.1,0.3,0.1,0.5c0.1,0.2,0.1,0.3,0.2,0.4   c0.1,0.1,0.2,0.3,0.3,0.4c1,1,2.5,1,3.5,0c0,0,0,0,0,0c0.1-0.1,0.2-0.2,0.3-0.4c0.1-0.1,0.2-0.3,0.2-0.4c0.1-0.1,0.1-0.3,0.1-0.5   C226.6,188,226.6,187.6,226.5,187.3z"/>
	<path class="st1" d="M101.9,23.7c-4.1-0.8-7.2-4-8-8c0-0.1-0.1-0.2-0.2-0.2c-0.1,0-0.1,0.1-0.2,0.2c-0.8,4.1-4,7.2-8,8   c-0.1,0-0.2,0.1-0.2,0.2c0,0.1,0.1,0.1,0.2,0.2c4.1,0.8,7.2,4,8,8c0,0.1,0.1,0.2,0.2,0.2c0.1,0,0.1-0.1,0.2-0.2c0.8-4.1,4-7.2,8-8   c0.1,0,0.2-0.1,0.2-0.2C102,23.8,101.9,23.7,101.9,23.7z"/>
	<path class="st5" d="M8.6,234.7c-1.4,0-2.5-1.1-2.5-2.5V20.6c0-1.4,1.1-2.5,2.5-2.5s2.5,1.1,2.5,2.5v211.5   C11.1,233.5,10,234.7,8.6,234.7z"/>
	<path class="st5" d="M253.5,234.7H8.6c-1.4,0-2.5-1.1-2.5-2.5s1.1-2.5,2.5-2.5h244.9c1.4,0,2.5,1.1,2.5,2.5   S254.9,234.7,253.5,234.7z"/>
	<path class="st5" d="M8.6,47.3H2.5c-1.4,0-2.5-1.1-2.5-2.5s1.1-2.5,2.5-2.5h6.1c1.4,0,2.5,1.1,2.5,2.5S10,47.3,8.6,47.3z"/>
	<path class="st5" d="M8.6,85.3H2.5c-1.4,0-2.5-1.1-2.5-2.5s1.1-2.5,2.5-2.5h6.1c1.4,0,2.5,1.1,2.5,2.5S10,85.3,8.6,85.3z"/>
	<path class="st5" d="M8.6,123.2H2.5c-1.4,0-2.5-1.1-2.5-2.5s1.1-2.5,2.5-2.5h6.1c1.4,0,2.5,1.1,2.5,2.5S10,123.2,8.6,123.2z"/>
	<path class="st5" d="M8.6,161.1H2.5c-1.4,0-2.5-1.1-2.5-2.5s1.1-2.5,2.5-2.5h6.1c1.4,0,2.5,1.1,2.5,2.5S10,161.1,8.6,161.1z"/>
	<path class="st5" d="M8.6,199H2.5c-1.4,0-2.5-1.1-2.5-2.5s1.1-2.5,2.5-2.5h6.1c1.4,0,2.5,1.1,2.5,2.5S10,199,8.6,199z"/>
	<path class="st5" d="M44.6,240.5c-1.4,0-2.5-1.1-2.5-2.5v-5.8c0-1.4,1.1-2.5,2.5-2.5s2.5,1.1,2.5,2.5v5.8   C47.1,239.3,46,240.5,44.6,240.5z"/>
	<path class="st5" d="M84.7,240.5c-1.4,0-2.5-1.1-2.5-2.5v-5.8c0-1.4,1.1-2.5,2.5-2.5s2.5,1.1,2.5,2.5v5.8   C87.2,239.3,86.1,240.5,84.7,240.5z"/>
	<path class="st5" d="M124.8,240.5c-1.4,0-2.5-1.1-2.5-2.5v-5.8c0-1.4,1.1-2.5,2.5-2.5s2.5,1.1,2.5,2.5v5.8   C127.3,239.3,126.1,240.5,124.8,240.5z"/>
	<path class="st5" d="M164.8,240.5c-1.4,0-2.5-1.1-2.5-2.5v-5.8c0-1.4,1.1-2.5,2.5-2.5s2.5,1.1,2.5,2.5v5.8   C167.3,239.3,166.2,240.5,164.8,240.5z"/>
	<path class="st5" d="M204.9,240.5c-1.4,0-2.5-1.1-2.5-2.5v-5.8c0-1.4,1.1-2.5,2.5-2.5s2.5,1.1,2.5,2.5v5.8   C207.4,239.3,206.3,240.5,204.9,240.5z"/>
	<path class="st5" d="M240.5,234.7H8.6c-1.4,0-2.5-1.1-2.5-2.5c0-0.7,0.3-1.4,0.8-1.8c0.3-0.3,32-31.7,48.3-169.9   c1.8-15,9.1-18.1,14.9-18.1c5.8,0,13.1,3.1,14.9,18c11.7,96.4,26.4,122.6,36.7,127.6c7.3,3.6,14.1,4.1,20.2,1.7   c9.5-3.7,17.7-14.6,24.4-32.3c3.5-9.1,8.9-14.1,15-13.8c6.8,0.4,12.6,7.4,15.6,18.9c11.8,44.6,26.4,67.2,43.5,67.2   c1.4,0,2.5,1.1,2.5,2.5S241.9,234.7,240.5,234.7L240.5,234.7z M14,229.7h211.4c-13-9.2-24-31-33.2-65.9l0,0   c-2.4-9.1-6.6-14.9-11.1-15.1c-3.7-0.2-7.5,3.8-10.1,10.6c-7.3,19-16.5,30.8-27.3,35.1c-7.4,2.9-15.6,2.3-24.3-1.9   c-16.8-8.1-29.7-51.1-39.5-131.5c-1.7-13.6-7.9-13.6-9.9-13.6s-8.3,0-10,13.7C46.7,175.5,23.1,217.3,14,229.7z"/>
	<path class="st5" d="M164.8,234.7H84.7c-1.4,0-2.5-1.1-2.5-2.5v-155c0-1.4,1.1-2.5,2.5-2.5c1.3,0,2.3,0.9,2.5,2.2   c11.4,83.5,25.1,106.5,34.5,111.1c7,3.4,13.5,4.1,19.4,2c8.1-2.8,15.3-10.8,21.5-23.7c0.6-1.2,2.1-1.8,3.3-1.2   c0.9,0.4,1.4,1.3,1.4,2.3v64.8C167.3,233.5,166.2,234.7,164.8,234.7C164.8,234.7,164.8,234.7,164.8,234.7z M87.2,229.7h75.2v-52.6   c-5.8,9.1-12.3,15.1-19.6,17.6c-7.2,2.5-15,1.7-23.2-2.3c-13-6.3-23.6-33.5-32.3-82.8V229.7z"/>
</g>
</svg>
