<?xml version="1.0" encoding="utf-8"?>
<!-- Generator: Adobe Illustrator 19.2.1, SVG Export Plug-In . SVG Version: 6.00 Build 0)  -->
<svg version="1.1" id="Layer_1" xmlns="http://www.w3.org/2000/svg" xmlns:xlink="http://www.w3.org/1999/xlink" x="0px" y="0px"
	 viewBox="0 0 841.9 595.3" style="enable-background:new 0 0 841.9 595.3;" xml:space="preserve">
<style type="text/css">
	.st0{fill:#61C2EE;}
	.st1{fill:#FFFFFF;}
	.st2{fill:none;stroke:#5D5E5E;stroke-width:0.5;stroke-miterlimit:10;stroke-dasharray:3.9895,3.9895;}
	.st3{fill:none;stroke:#5D5E5E;stroke-width:0.5;stroke-miterlimit:10;stroke-dasharray:3.9627,3.9627;}
	.st4{fill:none;stroke:#5D5E5E;stroke-width:0.5;stroke-miterlimit:10;stroke-dasharray:4;}
	.st5{fill:#186474;}
	.st6{fill:none;}
	.st7{fill:#1C75BC;}
	.st8{fill:none;stroke:#F7941E;stroke-width:8;stroke-miterlimit:10;}
	.st9{fill:none;stroke:#F7941E;stroke-miterlimit:10;}
	.st10{fill:#F7941E;}
	.st11{fill:#414042;}
	.st12{fill:#8DC63F;}
	.st13{fill:#5D5E5E;}
</style>
<g>
	<g>
		<g>
			<path class="st12" d="M264.6,337.4c0.3,0.1,0.2-0.8,0.2-0.9C264.4,336.7,264.6,337.6,264.6,337.4z"/>
			<path class="st12" d="M259.6,338.5l0.2-0.3c0,0-0.2,0.2-0.5,0.3c-0.2,0.1-0.5,0.3-0.5,0.3S259.6,338.5,259.6,338.5z"/>
			<path class="st12" d="M255.4,336.4c-0.2,0.7,0.2,0.9,0.7,1c0.5,0.1,1.1,0.1,1.4,0.5l0,0.4c0,0,0.2-0.2,0.4-0.4
				c0.2-0.2,0.4-0.4,0.4-0.4C257.4,337.2,255.8,337.2,255.4,336.4z"/>
			<path class="st12" d="M255.3,332.5c-0.2,0.5-0.7,0,0.3,0.5c0-0.1,0-0.1,0-0.2C255.5,332.7,255.4,332.6,255.3,332.5z"/>
			<path class="st12" d="M255.6,332.8C256,333,255.7,332.2,255.6,332.8L255.6,332.8z"/>
			<path class="st12" d="M253.8,331.6l0.8,0.1c0.1-0.3-0.2-0.8,0.1-0.8C254.1,330.6,253.9,330.9,253.8,331.6z"/>
			<path class="st12" d="M252.6,331.9l0.4,0.1C253.1,331.8,253,331.7,252.6,331.9z"/>
			<path class="st12" d="M253.8,332.1L253,332c-0.1,0.2-0.4,0.6,0.3,0.1C253,332.3,253.4,332.1,253.8,332.1z"/>
			<path class="st12" d="M254,332.6c0.1,0.5,0.3,0.9-0.5,0.9C254.5,334.1,255,333.2,254,332.6z"/>
			<path class="st12" d="M254.4,337.5l0.2,0.7l0.6-0.1C254.9,338,254.6,337.1,254.4,337.5z"/>
			<path class="st12" d="M251.7,328.1c-0.3,0.2-0.5,0.7-0.8,1c0,0,0.1,0,0.3,0.1c0.1,0,0.3,0.1,0.3,0.1
				C251.5,328.9,251.3,328.4,251.7,328.1z"/>
			<path class="st12" d="M250.9,329l-0.9-0.3C250.4,329.3,250.7,329.3,250.9,329z"/>
			<path class="st12" d="M251.4,332.9c0,0,0.4,0,0.8,0.1c0.4,0,0.8,0,0.8,0s-0.5-0.1-0.9-0.1c-0.5-0.1-0.9-0.1-0.9-0.1L251.4,332.9z
				"/>
			<path class="st12" d="M250,325.8l0.8-0.1c0,0-0.3,0-0.7,0c-0.3,0-0.7,0-0.7,0L250,325.8z"/>
			<path class="st12" d="M248.9,324.2c0.7,0,0.6-0.9,1.1-0.8c-0.4-0.4-1-0.5-1.6-0.6C248.7,323.1,248.9,323.5,248.9,324.2z"/>
			<path class="st12" d="M247.4,322.5c0.2,0.1,0.6,0.2,0.9,0.3C248.1,322.7,247.8,322.6,247.4,322.5z"/>
			<path class="st12" d="M249.4,327.6c0.1-0.2,0.4-0.5,0.4-1l-0.5,0.7C249.3,327.4,249.3,327.5,249.4,327.6z"/>
			<path class="st12" d="M249.2,327.4L249.2,327.4c-0.2-0.3-0.3-0.5-0.3-0.6C248.9,326.9,249,327.1,249.2,327.4z"/>
			<path class="st12" d="M249.4,327.7C249.4,327.7,249.4,327.6,249.4,327.7C249.3,327.7,249.3,327.7,249.4,327.7z"/>
			<path class="st12" d="M250.6,330.9c-0.6,0-1.7-0.5-1.6,0.7C249.7,331.5,249.6,330.8,250.6,330.9z"/>
			<path class="st12" d="M248.8,328.6c0,0,0.1,0.2,0.2,0.4c0.1,0.2,0.2,0.4,0.2,0.4c0.2-0.2,0.3-0.5,0.7-0.4c0,0-0.3-0.1-0.5-0.2
				C249,328.7,248.8,328.6,248.8,328.6z"/>
			<polygon class="st12" points="248.3,328.4 248.8,328.6 248.6,328.3 			"/>
			<path class="st12" d="M247.5,324.2c-0.5-0.1-0.7-0.4-1-0.8c0.1,0.5,0.3,1,0.5,1.4C247.2,324.7,247.8,324.6,247.5,324.2z"/>
			<path class="st12" d="M248.2,325.8C248.2,325.8,248.2,325.8,248.2,325.8C248.1,325.8,248.1,325.9,248.2,325.8z"/>
			<polygon class="st12" points="244.2,319.5 244.1,319.6 244.3,319.5 			"/>
			<path class="st12" d="M246.9,324.9c0.1,0.4,0.3,0.5,0.7,0.5c-0.2-0.2-0.4-0.4-0.6-0.7C246.9,324.8,246.8,324.8,246.9,324.9z"/>
			<path class="st12" d="M246.4,321.7c-0.1,0.3-0.1,0.5-0.1,0.8C246.5,322.2,246.7,321.6,246.4,321.7z"/>
			<path class="st12" d="M248.3,325.5C248.3,325.5,248.3,325.5,248.3,325.5C248.4,325.4,248.3,325.4,248.3,325.5z"/>
			<path class="st12" d="M248.3,325.5c-0.2-0.1-0.5-0.1-0.7-0.1c0.2,0.2,0.4,0.3,0.6,0.3C248.2,325.7,248.2,325.6,248.3,325.5z"/>
			<path class="st12" d="M238.7,320.7c0.7-0.3,1.8,0.3,1.5,1.4c0.9,0.5,3-1.3,3.9-2.6c-0.3,0.1-0.6,0.3-1.4-0.3
				c-0.3,0.5,0,2.2-1,1.9c-0.9-0.8-0.2-1-0.1-1.7c-0.7,0.9-2-0.7-3.1,0.2l0.9,0.7C239.3,320.5,238.8,320.4,238.7,320.7z"/>
			<path class="st12" d="M244.8,321.1l0.3,0.3c-0.1-0.4,0.1-0.8,0.4-1.6c-0.6-0.3-0.9-0.3-1.2-0.2c0,0,0.2,0.4,0.4,0.8
				c0.2,0.4,0.4,0.8,0.4,0.8L244.8,321.1z"/>
			<path class="st12" d="M245.9,322.7c-0.9,0.2-1.6-0.4-2.2,0.6c0.6,0.9,1,0.3,1.6,0.6C244.3,322.5,246,324,245.9,322.7
				c0.2,0.3,0.4,0.5,0.6,0.7c-0.1-0.3-0.1-0.6-0.1-0.9c0,0,0,0,0,0.1l0,0l0,0c-0.1,0.1-0.1,0.2-0.1,0.1c0,0,0,0,0,0
				C246.1,322.6,246,322.7,245.9,322.7c-0.1-0.5,0.2-0.2,0.3-0.1c0,0,0.1,0,0.1,0l0,0c0,0-0.3-0.3-0.6-0.6c-0.3-0.3-0.6-0.6-0.6-0.6
				C245.2,321.7,245.4,322.1,245.9,322.7z"/>
			<path class="st12" d="M247,332.1c0-0.1,0.1-0.1,0.1-0.2C247,331.9,246.9,331.9,247,332.1z"/>
			<path class="st12" d="M247,331.2c0.2,0,0.5-0.1,0.7,0.3c0,0.4-0.3,0.3-0.5,0.4c0.3,0.1,1,0.3,0.9-0.6l-0.2,0
				c-0.2-0.7,0.1-2,0.3-2C247.6,329.9,247.3,330.4,247,331.2z"/>
			<path class="st12" d="M246,327c0,0-0.3-0.2-0.6-0.5c-0.3-0.2-0.6-0.5-0.6-0.5l-0.2,1l0.4-0.3C245.3,327.6,245.7,327.1,246,327z"
				/>
			<polygon class="st12" points="244.6,319.1 245.4,318.9 243.9,318.8 			"/>
			<polygon class="st12" points="243.6,317.6 244.4,317.3 243.7,317.1 			"/>
			<path class="st12" d="M180,264.1l-0.1,0.4C180,264.4,180,264.2,180,264.1z"/>
			<path class="st12" d="M181.8,262.2l-0.2-0.3C181.7,262.1,181.7,262.2,181.8,262.2z"/>
			<path class="st12" d="M225.7,275c0.4-0.9,1.1-2,0.3-1.6l-0.7,0.6C225.7,274.3,225.7,274.7,225.7,275z"/>
			<path class="st12" d="M201.4,253.3c0,0.1,0,0.2,0.1,0.3c0.3-0.2,0.5-0.4,0.7-0.6C201.9,253.1,201.6,253.2,201.4,253.3z"/>
			<path class="st12" d="M199.7,256.5l-0.4-0.8C199.3,255.9,199.4,256.2,199.7,256.5z"/>
			<path class="st12" d="M172.6,277.9l0.6,0.8C173.6,278.1,173,278.2,172.6,277.9z"/>
			<path class="st12" d="M235.8,300.4c0.1-0.6,0.1-1.1,0-1.4C235.6,299.7,235.1,300.5,235.8,300.4z"/>
			<path class="st12" d="M173.8,257.2c-0.1,0.3,0,0.5,0.1,0.7C174,257.6,174,257.3,173.8,257.2z"/>
			<path class="st12" d="M235.3,297.5c0,0.1-0.1,0.2-0.1,0.3c0.3,0.3,0.5,0.6,0.7,1.1C236,298.4,236,297.8,235.3,297.5z"/>
			<path class="st12" d="M146.1,334c-0.1,0-0.1,0.1-0.2,0.1C146,334.1,146.1,334.1,146.1,334z"/>
			<path class="st12" d="M127.2,337.9c0.1-0.1,0.3-0.2,0.5-0.2C127.6,337.7,127.5,337.7,127.2,337.9z"/>
			<path class="st12" d="M240.9,310.8C241.1,311.1,241,310.8,240.9,310.8L240.9,310.8z"/>
			<path class="st12" d="M238.5,313.9c-0.1,0-0.3,0-0.4,0C238.3,313.9,238.4,313.9,238.5,313.9z"/>
			<path class="st12" d="M228.8,295.8C228.8,295.7,228.8,295.7,228.8,295.8C228.7,295.9,228.7,295.9,228.8,295.8z"/>
			<path class="st12" d="M240.8,311.5c0-0.2,0.1-0.4,0-0.6C240.8,311,240.7,311.2,240.8,311.5z"/>
			<path class="st12" d="M241.1,311.2c0,0.1,0,0.2,0.1,0.3C241.3,311.6,241.4,311.5,241.1,311.2z"/>
			<path class="st12" d="M240.6,310.3c0.1,0.2,0.1,0.4,0.2,0.6c0-0.1,0.1-0.1,0.1-0.1C240.8,310.7,240.7,310.5,240.6,310.3z"/>
			<path class="st12" d="M159.1,302.7c0,0-0.1,0-0.1,0C159.2,303.2,159.2,303,159.1,302.7z"/>
			<path class="st12" d="M212.9,270C212.9,270,212.9,270,212.9,270C212.9,270,212.9,269.9,212.9,270L212.9,270z"/>
			<path class="st12" d="M211.6,269.2c1.2-0.1,1.3,0.3,1.3,0.8l1.9-1.7c0,0-0.8,0.2-1.6,0.5C212.4,268.9,211.6,269.2,211.6,269.2z"
				/>
			<path class="st12" d="M176.3,269.8l1.2-0.4c0.5,1.6-0.3,2.1,1.1,1.9c-1.1-0.8-0.7-1.6-0.3-2.3c0.4-0.8,0.9-1.5-0.2-2.4l0.8-0.2
				c-0.1,0.1,0,0.2-0.1,0.4c1.7-0.2-1.1-1.9,0.2-2.8c0.5-0.3,1-0.3,1.1,0.2l0.2-1.3c0.3-0.2,0.6,0.2,0.3,0.4c0,0,0.2-0.4,0.5-0.7
				c0.3-0.4,0.5-0.7,0.5-0.7l0,0.1c-0.1-0.5-0.2-1.3-0.2-1.7c0.6,0,0,0.4,0.4,0.5c0,0,0.1-0.3,0.1-0.6c0.1-0.3,0.1-0.6,0.1-0.6
				c0.8,0.3,0.6,1.3,0.1,1.7c1.3,0.7,1.2,0.4,1.3,0c0-0.4,0.1-1.1,1.3-1c0,0-0.1,0.2-0.2,0.4c-0.1,0.2-0.2,0.4-0.2,0.4
				c0.7,0.4,1.1,0.5,1.4,0.4c0.4-0.1,0.7-0.2,1.3,0c-0.2-0.2-0.9-0.4-1.5-0.7c-0.6-0.3-1.2-0.7-1-1.3c0.3,0,0.7-0.1,0.8-0.9
				c0.5,0.8,0.8,0.3,1.3,0l0.6,1.1c0.3-0.6,0-1.2,0.1-1.9c0.7-0.2,1.2,0.6,1.7,1.4c0.5-0.1,0.2-0.4-0.1-0.8
				c-0.3-0.4-0.7-0.8-0.1-1.1c1.1,0.1,1.5-0.5,2.5-1.5c0.8,0.4,0,0.8,0.3,1.1c0,0,0.1-0.3,0.2-0.5c0.1-0.3,0.2-0.5,0.2-0.5
				c0.2,0,0.1,0.3,0.1,0.5c0.5-0.4-0.1-1.3,0.8-1.7c0.1-0.7,0.6-0.2,1.1,0.3c0.6,0.5,1.1,1,1.7,0.3c0.2,0.4-0.2,0.8-0.2,1.3
				c0.7-0.5,1.1-0.6,1.4-0.7c0.3-0.2,0.6-0.4,1.4-0.9c0,0,0.2,0.3,0.4,0.6c0.2,0.3,0.4,0.5,0.4,0.5c-0.2-0.6,0-1.1,0.4-1.5
				c0.4-0.4,1.1-0.7,1.7-0.9c-0.1-0.5-0.2-1-0.3-1.3c0,0,0.5,0,0.9,0c0.5,0,0.9,0,0.9,0c0.1,0.3-0.3,0.6-0.7,1
				c0.1,0,0.3-0.1,0.4-0.1c0.3,0.7-0.3,1.2-0.9,1.7c-0.1-0.3-0.1-0.6-0.2-1c-0.7,0.6-1.3,1.3-1.5,2c0.1-0.1,0.3-0.2,0.6-0.2
				c-0.2,0.2-0.3,0.3-0.3,0.4c0,0.1,0.2-0.1,0.6-0.3c0,0-0.1,0.4-0.1,0.7c-0.1,0.4-0.2,0.7-0.2,0.7l0.3-0.5c0,0,0.3,0.4,0.6,0.8
				c0.3,0.4,0.5,0.8,0.5,0.8c1.7-0.6,4.1-1.6,6.2-0.5c-1.1,0.4-1.2,1.2-2.1,2.1c0.2-0.7-0.2-0.9-0.7-1c-0.5-0.1-1.2-0.1-1.6-0.5
				c0.4,0.5-0.1,0.8-0.3,0.9c0,0,0.6,0,1.1,0.1c0.6,0.1,1.1,0.2,1.1,0.2c-0.7,0.7-0.2,0.8-0.1,1.5c1.1-1.7,2,0,3,0.3
				c-0.5,0.5-1.1,0.8-1.7,0c-0.4,1.8,2.7-0.6,2.5,1.1c-0.2-0.2-0.2-0.4-0.5-0.2c0.8,0,1.4,1.5,0.7,1.6l-0.2-0.2
				c0.2,0.4,0.5,0.8,0.9,1.2c0.3,0.4,0.7,0.9,1.1,1.3c0.8,0.8,1.7,1.3,2.5,0.9c-0.2,0.1-1.8,0.9-2.2,1c0,0,1.6-0.2,3.2-0.2
				c1.6-0.1,3.3-0.1,3.3-0.1c-1.4,0.5-3.9,3.2-5.3,2.4c0,0.5,0.1,1,0.9,1.5c0-0.3,1.5-1.7,1.8-1.4c-0.9,1.7-0.4,1.1-1,2.9
				c0.1-0.5,2.3-1.2,2.6-0.6c-0.4,0.1-2,1.1-2.3,1c0,0,0.7,0.1,1.4,0.2c0.7,0.1,1.4,0.2,1.4,0.2c-0.5-0.2-1.7,0.8-2.1,1.4
				c0.3-0.3,0.6,1.3,1,1.6l0.2-0.9c0.5,1.8,3.7,0.3,4.4,2.1c-0.5,0-2.8,0.7-2.7,1.7c1.2-0.1,5.9-0.5,7.4,0.7l-0.5,0.6l1.2,0.9
				c-1.9-0.1-6.2-0.7-7.9-1.2c-0.2,0.9-0.6,0.5-0.1,1.4c-0.4,0.6-1.1-0.1-1.2-0.4l0.6,2.4c1.2-0.6,2,1.2,3,0.7l-2.3-1.9
				c1.2-0.6,4.1-0.1,4.6,1.6c-0.3,0.6-2.3,0.6-2.7,0.8c0.5,0,1.5,1.2,1.2,1.5l-0.9-0.4c-0.1,1.1,2.3,0.8,1.5,2.4
				c0.1,0.4-1.1,1.8-0.4,1.5c1.2-1.2,5.5-3.1,6.8-3.1c0,0.2-0.6,2.6-1.1,3.3c-0.9,1.1-3,0.1-3.8,1c0.3-0.1,0.9,0.1,1.1,0.2
				c-0.1,0.5-1.1,0.3-0.6,1.1c1.3-0.4,0.6,1.8,1.2,0c0.7,0.7,0.1,1,0.5,2c0.7-0.6,3.1-0.2,3.8,0.5c-0.3,0.1-0.7,0.4-0.8,0.6
				c0.6,1.8,0.4,3,1,4.6c-0.2,0.3-0.3,1.2-1,1.1c0.3,0.1,0.8,0.2,1.1,0.7c-0.7,1.4-0.6-1.1-1.6,0.2c0.8-0.2,1.5,0.9,2.3,1.4
				c1.1-0.7-0.4-1.7-1.2-2.3c1.6-0.6,3.7,0,5.1,1.4c0.9,1.2-0.8,1-0.5,1.1c0.7,2.6,3.6,1,3.3,3.6c-0.7,1.2-2,0.9-2.6,1.3
				c-0.8-0.9-0.1-1.9-0.4-2.7l-0.1,1.1c-0.5-0.2-1-0.8-0.9-1.4c-0.6,1.1,1.6,4.3,1.6,6.6c0.5,0.2,1.1,0.6,1.4,0.2l-0.4-0.6
				c0.6-0.9,1.6,0.7,1.6-0.3c0.9,0.6,2.2,1.1,2.3,2.4l-1,0.7c0.3-0.2,0.3-1-0.2-1.2c0.7,0.2-0.7,2.4,1,2.3l0.4-1.1
				c0.9,0.5,2.6,1,2.7,2.1c0.9-1-0.2-0.2,0.7-1.5c-1.3,1.4-1.1-2.5-2.3-0.8c1.2-1.4,0.1-1.5,0.9-3.1c-0.4,0.2-0.6,0.6-0.7-0.3
				c-0.1,0-0.3,0-0.4,0c0,0,0,0,0-0.1l0,0.1c-0.1,0-0.1,0,0,0c-0.1,0.3-0.2,0.5-0.4,0.7c-1,0-1.6-1.4-2.2-1.7c0-0.6,0.5,0,0.8-0.4
				l-1-0.4c0.8-0.4,0.8-1.9,1.8-0.9l-0.4-1.1c0.2-0.8,0-1.8-0.5-2.2c0-0.6-1.4-0.9-0.6-0.7l-1.2-1.5l0.2-0.1c-0.6-1.7-2.8-2.9-2-5.4
				c-0.4-0.5-0.9-1-1.1-2l0.7-0.5c-0.5-0.6-0.1-2.5-1-2.5c1.6-1.6-1-3.7-1.2-5.2l-1,0.3c-0.3-0.9-0.9-1.7-1.7-2.6l-0.8,0.4
				c-1.1-0.7-0.4-2.7-1.1-4.2c0.4,0,0.4,0.4,0.4,0.7c1.1-2.6-3-3.2-2.4-5.5c-0.5-0.3-0.5-0.6-0.4-1c0,0,0.1,0.1,0.1,0.1
				c0,0,0-0.1-0.1-0.2c0.1-0.2,0.1-0.5,0.2-0.8c-0.1,0.3-0.2,0.5-0.2,0.7c-0.2-0.3-0.5-0.7-0.9-1.1l0.8-0.6c0,0,0-0.1-0.1-0.1
				c0.1-0.6-0.6-0.2-1.1,0.4c-0.3-0.2-0.5-0.3-0.8-0.4c1.2-1.1-1.1-1,0.2-2.2c-0.9,0-1.7-2-3.4-1.5c0.2-0.1,0.2-0.3,0.4-0.1
				c-0.1-0.6-0.2-1.2-0.9-1.4l0.9-0.8c0,0-0.5-0.1-1-0.1c-0.5-0.1-1-0.1-1-0.1c0.3-1,0.5-1.5,1.7-1.4c-2.2-0.9-1.3-1-3.3-1.6
				l0.7-0.4c-0.3-0.5-1.7-0.6-1.4-1.3c0.3-0.9-0.6-2.3-1.7-3.8c-1.2-1.5-2.6-3-3.4-4.7c-0.6,1.1-0.7,0.6-0.8,0
				c-0.2-0.6-0.4-1.3-1-0.6c0.2-0.6,0-1.1,0.8-1.1c-0.9-0.4-1.3-1-1.8-1.4c-0.5-0.4-1-0.7-1.9-0.4c0.1-0.6,0.8-0.5,0.8-0.9
				c-0.2,0-0.8,0.1-0.8-0.3c0-0.4,0.5-0.3,0.9-0.3c-1.8-1-2.8,0.5-3.6,1.9c-0.5-1.1-1-1.2-2-0.4c-0.1-0.6-0.4-1.3,0.7-1.1
				c-0.3-0.2-1.2-0.7-2.1-1c-0.9-0.3-1.8-0.3-1.9,0.3c-0.1-0.4-0.9-0.3-1.1-0.1c-1.4-0.3-1.5-0.4-3-0.3l0.4,0.2
				c-0.6,1.5-1.1,0.3-2.2,0.6l0-0.2c-1.3-0.4-1.6-0.2-1.9-0.1c-0.3,0.1-0.5,0.3-1.9-0.1l0.4,0.9c0.1,1-0.4,0.9-1.2,0.6
				c-0.8-0.3-1.8-0.5-2.4,0.1l0.7,0.3c-0.2,0.5-1,0-1.9-0.5c-0.9-0.5-1.9-1-2.3-0.9c-0.3-0.1,0.1-0.4,0.3-0.7
				c-2.6,0.1,0.3,1.2-0.9,2.3c-0.6-0.4-0.6-1.7-1.6-1.1c-0.2,0-0.4,0.2-0.6,0.5c-0.2,0.3-0.4,0.8-0.6,1.3c-0.5,0.9-1,1.9-2,1.9
				c0.6,0.2,1.2,0.3,0.9,1.1c-0.3,0.5-1.2,0.6-2,0.9c-0.7,0.3-1.3,0.8-1,1.7c-0.2,0-0.3,0-0.4-0.1c-0.2,0.9-1.2,2.5-0.7,3.5
				c-1.5-0.7-2,0.6-2.3,1.8c-0.3,1.2-0.4,2.3-1.7,1.5c0,0-0.3,0.5-0.6,1.1c-0.3,0.6-0.6,1.1-0.6,1.1l-0.2-0.2
				c-1,1.3-0.6,2.1-0.2,2.9c-0.4,0.2-0.5-0.1-0.6-0.3c-1.6,1.7-1.6,2-1.1,4.4l-1-0.3c0.3,0.7-2.8,2.3-2.7,4.8
				c-0.1-0.1-0.3-0.2-0.3-0.4c0,2.7-4.9,4.4-1.9,6.6l0.2,1.8c1-1.8,1.3,0.9,2.2,0.3c-0.1,0.8-1.8,1.5-1.6,0.5l0.2-0.1
				c-1.6-1.1-1.6,2.2-2.8,1.6c-1.4,3.8-3.8,7.2-5.3,10.7l1.5,0.1l-0.6,1.2c-0.4,0.2-1.2,0-0.8-0.8c-1,0.2,0.1,1.7,0.3,1.9
				c-1.2,1.5-1.3-1.3-1.6-0.8l-0.2,0.8l0.2-0.1c0.3,0.8,0.9,1.1,0.4,2.1c-0.5,0.6-1,0-1.1,0.2c-0.1,0-0.2,0-0.2,0.4l-0.7,1.5
				l1.3-0.2c0.3,0.9-0.7,1.4,0.9,1.2c-2.3,0.3-3.1,5.4-3.9,5.8c0.4,1.3-0.1,2.2-0.7,3.3c0.3-0.2,1.6,0.2,1,1.1
				c-2.3-1.5-1.9,1.3-4,1.2c1.5-0.1-1.1,2.8,1.1,2.6c-0.6,0.7-0.9-0.4-1.8-0.1c-0.1,2.4-2.8,3.7-3.9,5.9c0.3,0.2,1,0.2,1.1,0.9
				c0,0-0.6,0-1.1,0.1c-0.6,0-1.1,0-1.1,0c-0.1,0.5,1.4,1.6-0.1,1.6c0.3,0.1,0.8,0.2,0.7,0.5c-2.2,1.4-3.5,3.4-5.3,5.1
				c-0.9,0.8-1.8,1.6-2.9,1.9c-1.1,0.4-2.3,0.5-3.5,0.1c0.7,0.4,0.4,0.7,0,0.8c0.3,0.1,0.3,0.8,0.5,1.3c0,0-0.5-0.2-1.1-0.4
				c-0.5-0.2-1-0.5-1-0.5c0,0.7-0.5,0.8-1,0.9c-0.5,0.1-0.9,0.1-1,0.7c0,0,0.6-0.2,0.6-0.3c-0.3,0.8,0,1.6,0.5,2.4
				c0.5,0.8,1.2,1.7,1.3,2.6c0.5-0.9,1.3-0.5,2.3-0.2c0.5,0.1,1,0.2,1.5,0.1c0.5-0.1,0.9-0.5,1.1-1.2c0.6,0.2-0.1,0.7,0.3,1
				c0.2-0.9,0.6-1.3,1.8-1.5l0,0.2c0.7-0.4,1.3-0.8,1.8-1c0.6-0.3,1.1-0.5,1.6-0.8c0.5-0.3,1.1-0.5,1.7-0.8c0.6-0.3,1.3-0.7,2-1.2
				l-0.8-0.5c0.6-0.4,0.9-0.3,1.4-0.4c-0.4-1.6-1.6,1.4-2.1-0.3c1,0.4,2-0.5,2.8-1.4c0.9-0.9,1.7-1.8,2.7-1.3
				c0.7-0.9-1.1-0.4-0.4-1.3l0.7,0.1l-0.4-0.7c0.5-0.5,1.3-0.4,1.8-0.1c-0.2,0.1-0.2,0.5-0.3,0.7c0.6-0.2,0.9-0.8,1.2-1.3
				c0.2-0.6,0.4-1.1,0.6-1.2l-0.9,0.7c1.3-2.8,3.8-5.5,4-8.6l-0.5,0c0.3-2.3,1.2-1.3,1.9-3.6l0.1,0.1c-0.2-0.6-0.1-1.3,0.2-1.8
				c0.2,0.8,1.4-0.6,1.6,0.4c0.2-2.5-0.1-1.3-1-3.4l0.8,0c-0.4-0.7-0.7-0.9-0.4-2.1c0.2,1.1,1.3-0.2,1.7,1.1c2.5-1.6-0.1-3.9,2.5-4
				c-1.5-1.8-1.9,1.5-2,0.7c-0.8,0.2-1.1-1.4-0.6-2c0.3-0.7,2.9-0.2,3.6-2c-0.1,0.2,0.1,0.2,0,0.4c0.8-0.5-0.1-1.6,1-2.1
				c-1-0.9,0.5-1-0.9-1.8l-0.3,1.8c0-1.1-1.4-2.6,0-3.8c0.3,0.2,0.5,0.8,0.6,1.2c0.6-0.3,0.1-1,0.7-1.3c1.4,0.7-0.5,2.1,0.3,3.6
				c0.8-0.2-0.3-2.3,1.1-1.2c-1.7-1.5,1-1.7-0.1-3.5l0.9,0.4c-0.1-0.2-0.3-0.8-0.2-1.2l0.9,1.1c-0.6-1.4,1.6-1.6,1.4-2.7
				c-0.7,2-1.2,0-2.2,0.6c-0.2-2.9,2.9-0.5,3.5-3.4c0,0.4-1.1,1.2-1.3,0.4c0.4-0.4,1-1,1.6-1.1c0.5-1.9-1-0.1-1.3-1.1
				c1.3-0.2-0.1-1.1-0.1-2l0.9,0.4c1.4-1.8-1.7-1.3-0.2-2.8l0.9,1.3l0.1-1.1l0.9,0.6c-0.3-1.3,0-1.6,0.7-2.5c-0.7,0-1.6-0.8-1.2-1.7
				c0.8-0.4,0.7,0.7,1.1-0.6c0.4,0.5,1,1.1,0,1.3c0.3,0.2,0.4,0.5,0.7,0.7c0.9-0.4,0.8-1.6,1-2c-0.1,0.2-0.2,0.3-0.4,0.4l-0.5-2.3
				c0.5-0.1,0.6,0.2,0.8,0.5c0.1-0.4-0.2-0.8-0.1-1.4c0.7,0.5,1.4,0.7,1.4,1.6l0-2c0.4,0,1.2-0.5,1.4-0.1c0.8-0.7-0.3-2.9,0.8-3.9
				c-0.1-0.1-0.2-0.3-0.2-0.6c0.7-1.1,2.1-1.6,1.8-3.4l1.6-0.1c0.3-1.2-2.1,0.1-1.6-1.8c0.3-1.4,1.3,0.1,1.9-0.1
				c-0.3-0.9-0.9-2.7,0.7-3.1C176.8,269.2,176.4,269.4,176.3,269.8z M184.5,259.3c-0.1,0.3-0.1,1.1-0.6,0.7
				C183.4,259,183.9,259.3,184.5,259.3z M202.4,255.9c-0.3,0.2-0.5-0.1-0.7-0.6C202.1,255.3,202.3,255.5,202.4,255.9z M238.5,307.1
				C238.5,307.1,238.4,307.1,238.5,307.1C238.5,306.4,238.5,306.7,238.5,307.1z M238.6,308.5c0.2,0.1,0.3,0,0.4-0.1
				c-0.3,0-0.4-0.3-0.5-0.6C238.3,308,238.2,308.2,238.6,308.5z M151.5,304.2l0.3-0.1C151.9,304.7,151.7,304.5,151.5,304.2z"/>
			<path class="st12" d="M199.8,256.1c0-0.2,0-0.4,0.1-0.5C199.8,255.7,199.7,255.9,199.8,256.1z"/>
			<path class="st12" d="M172.5,277.8C172.5,277.8,172.5,277.8,172.5,277.8c0,0.1,0.1,0.1,0.1,0.2L172.5,277.8z"/>
			<path class="st12" d="M223.3,292.1c0-0.3,0.1-0.5,0.3-0.7C223.3,291.5,223.2,291.7,223.3,292.1z"/>
			<path class="st12" d="M242.9,314.2l-0.6-0.7c0.2,0.3,0.1,0.6,0,0.8C242.6,314.3,242.8,314,242.9,314.2z"/>
			<path class="st12" d="M240.9,323.5c0.2,0.1,0.1,0.2,0.3,0.3l0.4-0.2C241.3,323.1,240.8,322.9,240.9,323.5z"/>
			<path class="st12" d="M240.4,316.3c-0.7,0.4-0.2,0.8,0.2,1.2c0,0,0-0.1,0-0.1C241.6,317.1,241,316.7,240.4,316.3z"/>
			<path class="st12" d="M240.6,317.7c0.1,0.1,0.2,0.3,0.3,0.5C241.3,318,240.9,317.9,240.6,317.7z"/>
			<path class="st12" d="M239.8,309.9c-0.1,0.3,1-0.2,0.8,0C241.6,309.8,238.7,308.7,239.8,309.9z"/>
			<polygon class="st12" points="238.2,317.9 239,317.3 238.1,317.3 			"/>
			<path class="st12" d="M236.8,313.3l0.1,1c0.1-0.1,0.3,0,0.4,0.1C237.2,313.8,237.1,313.1,236.8,313.3z"/>
			<path class="st12" d="M237.4,314.3c0.1,0.3,0.3,0.6,0.5,0.6C237.8,314.8,237.6,314.5,237.4,314.3z"/>
			<polygon class="st12" points="237.3,316.8 237.4,316.5 237.2,315.8 			"/>
			<path class="st12" d="M233,303.6l-0.7-0.9c-0.4,0-0.4,0.4-0.2,0.7C232.5,303.5,232.8,303.8,233,303.6z"/>
			<path class="st12" d="M231.7,307.6c0.1-0.3,0.3-0.4,0.5-0.7l-1.2,0.4L231.7,307.6z"/>
			<path class="st12" d="M230.2,304.8c-0.4,0-1.5-1.1-0.9,0.2C229.7,304.9,230.3,305.8,230.2,304.8z"/>
			<polygon class="st12" points="225.8,289.4 225.9,289.6 227.8,288.8 			"/>
			<path class="st12" d="M215.9,278.6c0.1,1.3,1.3-0.3,1.2,1c0.6,0.1,0.1-1,0.6-0.9C216.8,278.1,216.9,277.7,215.9,278.6z"/>
			<path class="st12" d="M217.6,278.6c0.1,0.1,0.3,0.1,0.4,0.2C217.8,278.7,217.7,278.6,217.6,278.6z"/>
			<path class="st12" d="M124.8,337.3c0,0-0.6-0.3-0.6-0.4c0,0,0.1,0.2,0.2,0.3c0.1,0.2,0.2,0.3,0.2,0.3L124.8,337.3z"/>
			<path class="st12" d="M123.7,338.9l-0.2-1.3c0,0-0.1,0.3-0.2,0.6c-0.1,0.3-0.2,0.6-0.2,0.6C123.2,338.7,123.5,338.6,123.7,338.9z
				"/>
			<path class="st12" d="M187.3,260.5l-0.1-0.3c-0.3-0.2-0.4-0.2-0.6-0.1c0,0,0.2,0.1,0.4,0.2C187.1,260.4,187.3,260.5,187.3,260.5z
				"/>
			<polygon class="st12" points="180.4,265.6 180.5,265.5 179.4,265 			"/>
			<path class="st12" d="M177.2,273.3c0.2-0.3,0.2-0.8,0.4-1C177.4,273,175.9,272.6,177.2,273.3z"/>
		</g>
		<rect x="123.1" y="356.3" class="st13" width="141.7" height="3"/>
		<path class="st13" d="M194.5,346.6h-1v-4h1V346.6z M194.5,338.6h-1v-4h1V338.6z M194.5,330.6h-1v-4h1V330.6z M194.5,322.6h-1v-4h1
			V322.6z M194.5,314.6h-1v-4h1V314.6z M194.5,306.6h-1v-4h1V306.6z M194.5,298.6h-1v-4h1V298.6z M194.5,290.6h-1v-4h1V290.6z
			 M194.5,282.6h-1v-4h1V282.6z M194.5,274.6h-1v-4h1V274.6z M194.5,266.6h-1v-4h1V266.6z M194.5,258.6h-1v-4h1V258.6z M194.5,250.6
			h-1v-4h1V250.6z M194.5,242.6h-1v-4h1V242.6z M193.5,234.6L193.5,234.6l1-0.1L193.5,234.6z"/>
	</g>
	<g>
		<g>
			<path class="st12" d="M123.1,168.7v-5c1.8,0,3.5-0.3,5.1-0.8l1.5,4.8C127.6,168.3,125.4,168.7,123.1,168.7z"/>
			<path class="st12" d="M140.9,160.3l-3.6-3.4c2.3-2.4,4.5-5.5,6.8-9.4l4.3,2.5C145.9,154.2,143.4,157.5,140.9,160.3z M247,160.2
				c-2.6-2.7-5-6.1-7.4-10.3l4.3-2.5c2.2,3.9,4.4,7,6.7,9.4L247,160.2z M153.9,138.8l-4.6-2c1.4-3.1,2.8-6.6,4.6-11.2l4.6,1.8
				C156.8,132.1,155.3,135.6,153.9,138.8z M234,138.7c-1.4-3.2-2.9-6.7-4.7-11.4l4.6-1.8c1.8,4.6,3.3,8.1,4.6,11.2L234,138.7z
				 M163.1,116.1l-4.6-1.8c1.9-4.7,3.3-8.2,4.7-11.4l4.6,2C166.3,108,164.9,111.4,163.1,116.1z M224.8,116
				c-1.8-4.6-3.3-8.1-4.6-11.2l4.6-2c1.4,3.2,2.9,6.7,4.7,11.4L224.8,116z M173.1,94.2l-4.3-2.5c2.4-4.2,4.9-7.6,7.4-10.3l3.6,3.4
				C177.5,87.2,175.3,90.3,173.1,94.2z M214.8,94.1c-2.2-3.9-4.5-7-6.8-9.4l3.6-3.4c2.6,2.7,5,6.1,7.5,10.3L214.8,94.1z M188.7,78.8
				l-1.5-4.8c4.3-1.4,9.2-1.4,13.5,0l-1.5,4.8C195.8,77.7,192,77.7,188.7,78.8z"/>
			<path class="st12" d="M264.8,168.7c-2.3,0-4.5-0.3-6.7-1l1.5-4.8c1.6,0.5,3.4,0.8,5.1,0.8V168.7z"/>
		</g>
		<rect x="123.1" y="180.2" class="st13" width="141.7" height="3"/>
		<path class="st13" d="M194.5,170.4h-1v-4h1V170.4z M194.5,162.4h-1v-4h1V162.4z M194.5,154.4h-1v-4h1V154.4z M194.5,146.4h-1v-4h1
			V146.4z M194.5,138.4h-1v-4h1V138.4z M194.5,130.4h-1v-4h1V130.4z M194.5,122.4h-1v-4h1V122.4z M194.5,114.4h-1v-4h1V114.4z
			 M194.5,106.4h-1v-4h1V106.4z M194.5,98.4h-1v-4h1V98.4z M194.5,90.4h-1v-4h1V90.4z M194.5,82.4h-1v-4h1V82.4z M194.5,74.4h-1v-4
			h1V74.4z M194.5,66.4h-1v-4h1V66.4z M193.5,58.4L193.5,58.4l1-0.1L193.5,58.4z"/>
	</g>
	<g>
		<path class="st12" d="M491.8,168.7c-19.4,0-28.7-23.9-37.8-46.9c-8.4-21.5-17.1-43.8-33.1-43.8c-16,0-24.7,22.2-33.1,43.8
			c-9,23.1-18.3,46.9-37.8,46.9v-5c16,0,24.7-22.2,33.1-43.8c9-23.1,18.3-46.9,37.8-46.9c19.4,0,28.7,23.9,37.8,46.9
			c8.4,21.5,17.1,43.8,33.1,43.8V168.7z"/>
		<rect x="350.1" y="180.2" class="st13" width="141.7" height="3"/>
		<path class="st13" d="M421.4,170.4h-1v-4h1V170.4z M421.4,162.4h-1v-4h1V162.4z M421.4,154.4h-1v-4h1V154.4z M421.4,146.4h-1v-4h1
			V146.4z M421.4,138.4h-1v-4h1V138.4z M421.4,130.4h-1v-4h1V130.4z M421.4,122.4h-1v-4h1V122.4z M421.4,114.4h-1v-4h1V114.4z
			 M421.4,106.4h-1v-4h1V106.4z M421.4,98.4h-1v-4h1V98.4z M421.4,90.4h-1v-4h1V90.4z M421.4,82.4h-1v-4h1V82.4z M421.4,74.4h-1v-4
			h1V74.4z M421.4,66.4h-1v-4h1V66.4z M420.4,58.4L420.4,58.4l1-0.1L420.4,58.4z"/>
	</g>
	<g>
		<path class="st12" d="M647.9,251.6c-35.4,0-35.4,90.7-70.9,90.7h141.7C683.4,342.3,683.4,251.6,647.9,251.6z"/>
		<rect x="577.1" y="356.3" class="st13" width="141.7" height="3"/>
		<path class="st13" d="M648.4,346.6h-1v-4h1V346.6z M648.4,338.6h-1v-4h1V338.6z M648.4,330.6h-1v-4h1V330.6z M648.4,322.6h-1v-4h1
			V322.6z M648.4,314.6h-1v-4h1V314.6z M648.4,306.6h-1v-4h1V306.6z M648.4,298.6h-1v-4h1V298.6z M648.4,290.6h-1v-4h1V290.6z
			 M648.4,282.6h-1v-4h1V282.6z M648.4,274.6h-1v-4h1V274.6z M648.4,266.6h-1v-4h1V266.6z M648.4,258.6h-1v-4h1V258.6z M648.4,250.6
			h-1v-4h1V250.6z M648.4,242.6h-1v-4h1V242.6z M647.4,234.6L647.4,234.6l1-0.1L647.4,234.6z"/>
	</g>
	<g>
		<path class="st12" d="M718.8,521c-19.4,0-28.7-23.9-37.8-46.9c-8.4-21.5-17.1-43.8-33.1-43.8c-16,0-24.7,22.2-33.1,43.8
			c-9,23.1-18.3,46.9-37.8,46.9v-5c16,0,24.7-22.2,33.1-43.8c9-23.1,18.3-46.9,37.8-46.9c19.4,0,28.7,23.9,37.8,46.9
			c8.4,21.5,17.1,43.8,33.1,43.8V521z"/>
		<rect x="577.1" y="532.5" class="st13" width="141.7" height="3"/>
		<path class="st13" d="M648.4,522.7h-1v-4h1V522.7z M648.4,514.7h-1v-4h1V514.7z M648.4,506.7h-1v-4h1V506.7z M648.4,498.7h-1v-4h1
			V498.7z M648.4,490.7h-1v-4h1V490.7z M648.4,482.7h-1v-4h1V482.7z M648.4,474.7h-1v-4h1V474.7z M648.4,466.7h-1v-4h1V466.7z
			 M648.4,458.7h-1v-4h1V458.7z M648.4,450.7h-1v-4h1V450.7z M648.4,442.7h-1v-4h1V442.7z M648.4,434.7h-1v-4h1V434.7z M648.4,426.7
			h-1v-4h1V426.7z M648.4,418.7h-1v-4h1V418.7z M647.4,410.7L647.4,410.7l1-0.1L647.4,410.7z"/>
		<path class="st13" d="M592,522.7h-1v-4h1V522.7z M592,514.7h-1v-4h1V514.7z M592,506.7h-1v-4h1V506.7z M592,498.7h-1v-4h1V498.7z
			 M592,490.7h-1v-4h1V490.7z M592,482.7h-1v-4h1V482.7z M592,474.7h-1v-4h1V474.7z M592,466.7h-1v-4h1V466.7z M592,458.7h-1v-4h1
			V458.7z M592,450.7h-1v-4h1V450.7z M592,442.7h-1v-4h1V442.7z M592,434.7h-1v-4h1V434.7z M592,426.7h-1v-4h1V426.7z M592,418.7h-1
			v-4h1V418.7z M591,410.7L591,410.7l1-0.1L591,410.7z"/>
		<path class="st13" d="M702,522.7h-1v-4h1V522.7z M702,514.7h-1v-4h1V514.7z M702,506.7h-1v-4h1V506.7z M702,498.7h-1v-4h1V498.7z
			 M702,490.7h-1v-4h1V490.7z M702,482.7h-1v-4h1V482.7z M702,474.7h-1v-4h1V474.7z M702,466.7h-1v-4h1V466.7z M702,458.7h-1v-4h1
			V458.7z M702,450.7h-1v-4h1V450.7z M702,442.7h-1v-4h1V442.7z M702,434.7h-1v-4h1V434.7z M702,426.7h-1v-4h1V426.7z M702,418.7h-1
			v-4h1V418.7z M701,410.7L701,410.7l1-0.1L701,410.7z"/>
		<path class="st13" d="M676.6,522.7h-1v-4h1V522.7z M676.6,514.7h-1v-4h1V514.7z M676.6,506.7h-1v-4h1V506.7z M676.6,498.7h-1v-4h1
			V498.7z M676.6,490.7h-1v-4h1V490.7z M676.6,482.7h-1v-4h1V482.7z M676.6,474.7h-1v-4h1V474.7z M676.6,466.7h-1v-4h1V466.7z
			 M676.6,458.7h-1v-4h1V458.7z M676.6,450.7h-1v-4h1V450.7z M676.6,442.7h-1v-4h1V442.7z M676.6,434.7h-1v-4h1V434.7z M676.6,426.7
			h-1v-4h1V426.7z M676.6,418.7h-1v-4h1V418.7z M675.6,410.7L675.6,410.7l1-0.1L675.6,410.7z"/>
		<path class="st13" d="M621.9,522.7h-1v-4h1V522.7z M621.9,514.7h-1v-4h1V514.7z M621.9,506.7h-1v-4h1V506.7z M621.9,498.7h-1v-4h1
			V498.7z M621.9,490.7h-1v-4h1V490.7z M621.9,482.7h-1v-4h1V482.7z M621.9,474.7h-1v-4h1V474.7z M621.9,466.7h-1v-4h1V466.7z
			 M621.9,458.7h-1v-4h1V458.7z M621.9,450.7h-1v-4h1V450.7z M621.9,442.7h-1v-4h1V442.7z M621.9,434.7h-1v-4h1V434.7z M621.9,426.7
			h-1v-4h1V426.7z M621.9,418.7h-1v-4h1V418.7z M620.9,410.7L620.9,410.7l1-0.1L620.9,410.7z"/>
	</g>
	<g>
		<path class="st12" d="M347.5,349.2c17.8-0.3,27.9-17.7,34.6-32c7.5-16.1,12.1-33.8,21.4-48.6c1.2-1.9,3.8-5.1,5.7-6.7
			c1.8-1.5,4.3-2.8,7.3-3.2c6.2-0.9,12,2.2,16.2,6.7c11.7,12.8,16.4,31.4,22.9,47.1c6,14.6,14.9,36.4,33.7,36.7
			c5.8,0.1,11.6-13.6,5.2-13.7c-15.5-0.3-23-19-28.1-31.1c-6.7-16.1-11.6-34.5-22.6-48.4c-10-12.4-25.6-15-38-4.2
			c-13.6,11.9-19.6,31.1-26,47.4c-3.6,9.2-6.9,17.8-12.1,26.1c-1.6,2.4-3.8,5.4-6.6,7.4c-1.8,1.3-5.1,2.7-8.3,2.7
			C346.8,335.5,341.1,349.3,347.5,349.2L347.5,349.2z"/>
		<rect x="350.1" y="356.3" class="st13" width="141.7" height="3"/>
		<path class="st13" d="M421.4,346.6h-1v-4h1V346.6z M421.4,338.6h-1v-4h1V338.6z M421.4,330.6h-1v-4h1V330.6z M421.4,322.6h-1v-4h1
			V322.6z M421.4,314.6h-1v-4h1V314.6z M421.4,306.6h-1v-4h1V306.6z M421.4,298.6h-1v-4h1V298.6z M421.4,290.6h-1v-4h1V290.6z
			 M421.4,282.6h-1v-4h1V282.6z M421.4,274.6h-1v-4h1V274.6z M421.4,266.6h-1v-4h1V266.6z M421.4,258.6h-1v-4h1V258.6z M421.4,250.6
			h-1v-4h1V250.6z M421.4,242.6h-1v-4h1V242.6z M420.4,234.6L420.4,234.6l1-0.1L420.4,234.6z"/>
	</g>
	<g>
		<g>
			<path class="st12" d="M243.3,498c0.1,0,0.1,0,0.3-0.1C243.4,497.9,243.3,497.9,243.3,498z"/>
			<path class="st12" d="M237.1,480.2l0.2,0.2C237.2,480.2,237.1,480.2,237.1,480.2z"/>
			<path class="st12" d="M248.6,507.6C248.6,507.6,248.6,507.6,248.6,507.6c0,0.2,0.2,0.4,0.4,0.6c0,0-0.1-0.2-0.2-0.3
				C248.7,507.8,248.6,507.6,248.6,507.6z"/>
			<path class="st12" d="M221.9,441l0.1,0.2C222,441.2,222,441.1,221.9,441z"/>
			<path class="st12" d="M231.5,464.4c-0.1,0-0.2-0.1-0.3-0.2C231.3,464.3,231.3,464.4,231.5,464.4z"/>
			<path class="st12" d="M248.8,516l0-0.5C248.6,515.6,248.6,515.8,248.8,516z"/>
			<path class="st12" d="M260.9,520.5C260.9,520.4,260.9,520.4,260.9,520.5C260.8,520.4,260.8,520.4,260.9,520.5z"/>
			<path class="st12" d="M256.8,517.6c-0.1,0-0.2,0-0.4,0C256.5,517.6,256.7,517.7,256.8,517.6z"/>
			<path class="st12" d="M256.2,517.6l0.2,0C256.3,517.6,256.2,517.6,256.2,517.6z"/>
			<path class="st12" d="M124.5,514.3c-0.2,0-0.5,0.3-0.7,0.5C123.8,514.8,124.5,514.3,124.5,514.3z"/>
			<path class="st12" d="M183,423.9l0-0.2C183,423.8,183,423.9,183,423.9z"/>
			<path class="st12" d="M124.4,517.6l-0.2-0.1C124.3,517.6,124.3,517.6,124.4,517.6z"/>
			<path class="st12" d="M243.4,511.7c-0.5-0.1-0.6-0.9-0.9-0.7C242.7,511.2,242.9,511.9,243.4,511.7z"/>
			<path class="st12" d="M184.4,439.8l-0.1,0.1C184.3,439.9,184.3,439.9,184.4,439.8z"/>
			<path class="st12" d="M124.4,517.6c0,0,0.3,0.1,0.3,0.1c0-0.1-0.1-0.1-0.1-0.2C124.5,517.5,124.5,517.6,124.4,517.6z"/>
			<path class="st12" d="M157.2,458.1C157.2,458.1,157.2,458,157.2,458.1c0,0,0-0.1,0-0.1L157.2,458.1z"/>
			<path class="st12" d="M155.9,459.8c0-0.2,0-0.3,0.1-0.5C155.8,459.5,155.8,459.6,155.9,459.8z"/>
			<path class="st12" d="M123.8,514.8l-0.4,0.3C123.5,515.1,123.7,514.9,123.8,514.8z"/>
			<path class="st12" d="M148.2,480.5c0-0.1,0-0.1,0-0.2C148.2,480.4,148.2,480.5,148.2,480.5z"/>
			<path class="st12" d="M231.9,466c0,0.1,0,0.1,0,0.2C232,466.2,232,466.1,231.9,466z"/>
			<path class="st12" d="M216.8,455.9L216.8,455.9L216.8,455.9C216.8,455.9,216.8,455.9,216.8,455.9z"/>
			<path class="st12" d="M217.6,456.4c0-0.3-0.4-0.5-0.8-0.5C216.9,456.1,217.1,456.3,217.6,456.4z"/>
			<path class="st12" d="M216.3,454.2c0,0,0,0.1,0,0.1C216.3,454.3,216.3,454.3,216.3,454.2z"/>
			<path class="st12" d="M221.9,469.3C221.9,469.3,222,469.3,221.9,469.3C222,469.3,221.9,469.3,221.9,469.3L221.9,469.3z"/>
			<path class="st12" d="M220.7,466.3c0-0.1,0.1-0.2,0.1-0.3C220.7,466.1,220.7,466.2,220.7,466.3z"/>
			<path class="st12" d="M211.7,448L211.7,448C211.7,448,211.7,448,211.7,448L211.7,448z"/>
			<path class="st12" d="M193.3,436.8c1.8-0.4,4.3-0.7,5.9,0.5c0.4-0.3,0.7-0.3,1-0.3c0.3,0,0.6,0.2,1,0.3l-0.5,0.9l0.6,0
				c0,0.4-0.5-0.1-0.4,0.5c0,0,0.1-0.1,0.3-0.2c0.1-0.1,0.3-0.2,0.3-0.2c-0.2,0.3,1,1.1-0.2,1.1c0-0.1,1.7,1.4,1.7,1.5
				c0.3,0.4,0.8-0.4,1.1,0.2c-0.1,0.3-0.3,0-0.5,0.3c0.3,0.9,1,0.9,1.8,1c0.7,0,1.5,0.1,1.9,1l-0.2,0c0.4,0.1,0.7,0.6,0.9,0.5
				c0.7-0.8-0.6,0.1-0.5-0.8c0.7-0.5,0.8,0.3,1.3-0.1c0,0.6,0.6,0.5,0.8,0.8c-0.1,0.9,0.8,1.5,0.5,2.3c0.4,0.1,1.3,0,1.7,0.6
				c-0.3,0.8-0.6,0.2-0.5,1l0.5-0.2c0.2,0.5,0.1,0.5-0.2,0.6c0.3,0.6,0.9,0.1,1,0.9l-0.6-0.1c0.5,0.4,0.5,0.7,0.9,1.4
				c-0.3,0.1-0.4-0.2-0.4-0.4c-0.4,0.7,0.7,0.5,0.7,0.8c0.2-0.2,0-0.7,0.5-0.7c0.1,0.4,1,0.5,0.6,1l-0.6-0.2
				c0.7,0.6,0.8,0.1,1.1,1.1c-0.1,0-0.2,0.1-0.3,0.1c0.9,0.3,0.7,1.3,1.1,2.1l-0.2-0.1c0.3,0.3,0.8,0.3,0.9,0.4
				c0-0.6,0.2-0.5,0.6-0.8c-0.4,1,1.3,0.6,1.4,1.8c-0.3,0.1-0.7,0-0.6-0.4c-0.9,0-1.6,0.3-2.3-0.2c0.4,0.3,0.7,0.7,0.3,0.8l0.8-0.2
				c0.1,0.2,0.2,0.4,0.3,0.6c0.5-0.1,0.5-0.8,1.1-0.4c0.5,0.5-0.6,0.7-0.2,0.6c0.7,0.7,0.9,0,1.1,1c-0.1-0.1-0.3-0.2-0.3-0.3
				c0,0.7,0.8,1.4,0,2c-0.2,0-0.5,0.1-0.5-0.2l0.1,0c-0.9-0.4,0.4,0.5-0.5,0.6c0.5-0.3,0.7,0.6,0.8,1.1l0.5-0.4
				c2.2,0.6-1.1,0.4-0.3,1.6c0.7,0.7,0-0.4,0.6,0c0.1,0.6-0.3,1,0.3,1.7c-0.1,0.3-0.2,0.9-0.8,1.2c0.4,0.4,0.3,1.6,1,1.6
				c0.2-1-1-0.6-0.6-1.9l0.7,0c0.2,0.7,0.9,1.4,0.9,2c0.1-0.1,0.2-0.2,0.4-0.2c0.6,0.9,1.3,0.9,1.5,1.9c-0.5,0.3-0.6-0.3-0.8-0.6
				c-0.2,0.8,0.2,0.7,0.4,1.7c-0.5,0.2-0.2-0.7-0.7-0.6l0.6,1c0,0-0.1,0-0.1,0c0.9-0.2,0.2,0.8,0.7,1.4c0.6,1.5,1.8,1.4,2.7,2
				c-0.1,0.3-0.3,0.5-0.5,0.4c0.2-0.5,0-0.3-0.3-0.4c0.3,0.5-0.3,1.4-0.8,1.3c0.6,0.7,0.3-0.5,0.7-0.1l0.4,1.2
				c0.4-0.3,0.3-0.7,0.8-0.3c0.3,0.5,0.3,0.7,0.5,1.4c-0.2,0-0.5,0.4-0.7-0.1c0,0.4,0.1,0.9,0.6,0.9c0.1-0.9,0.8,1,1.2,0.3l-0.1,0.9
				c-0.1-0.2-0.3-0.1-0.3-0.3c-0.5,0.4,0.4,0.5,0.6,0.7c0,0.3,0.2,1,0,1.1c0.3,0.2,0.3,0.8,0.1,1c0.3,0.3,0.4-0.1,0.7-0.1l0.4,1.2
				c-0.3,0.2-1.2,0.7-1.4,0.5c0.5,0.3,1.1-0.2,1.3,0.4c-0.8-0.1-0.2,1.1-1.2,0.8c-0.3,0.6,0.1,1.6,0.5,2.2c0.7,0.2,0-0.8,0.6-0.9
				c0.9,1.6,2.4,1.1,2.6,2.4l0-0.4c0.6,0.6,0.5,0.6,1.1,0.8c-0.7,0.1-1.4,1.6-0.7,2.8c0.4,0,0.3-1,0.9-1l0.5,0.8c0,0.1-0.2,0-0.3,0
				c0.6,0.6-0.3,1.7,0.6,1.6l-0.6,1.2l0.3-0.5c0.4,0,0.8,0.7,1,0.8c0.7,0.7,0.6,1.1,0.4,1.8c0.2-0.3,0.6-0.9,1-0.3
				c-1.1,0.5,0.3,1.6-0.3,1.8c0.1,0.3,0,0.9,0.5,0.7l-0.7,0.3c0.9-0.4,1.4,0.6,1.9,1.3c-1.3,0.5,0.5,0.8-0.4,1.7
				c0.9-0.3,1,1.1,1.8,0.9c0.3,0.5-0.4,0.9-0.6,1.2l0.4,0.1c-0.2,0.5,0.3,1.6,0.4,2.4l1,0.2l-0.2,0.4c0.2,0,0.6,0.4,0.7-0.1l0.2,0.3
				c0.8-0.5,0.5,0.3,1.2,0.7c0,0.2-0.2,0.3-0.4,0.2c0.2,0.3-0.3,0.4-0.4,0.8c0.1-0.3,2.1,0.2,1.9-0.8c0.3-0.3,0.8,0.1,0.9,0.4
				l-0.5,0.6l0.9-0.1c0.4,0.4,0.1,0.9,0.3,1.3c-0.3-0.3-1.9,0.1-1.1,1c-0.5-0.5-1-0.4-1.3-0.6c0.1,0.2,0.1,0.4-0.4,0.2
				c0.8,0.6,0.6,0,1.2,0.7c-0.6,0.4-0.7,0.7-0.3,1.6l0-0.8c0.1,0,0.2,0,0.2,0c-0.1-0.2,0-0.4,0.2-0.6c0.1,0.2,1.4,0.3,1.1,0.7
				c0.3-1.4,1.7,0.8,1.9-0.1c0.2-0.1,0.7,0.4,0.4,0.7c-0.9-0.2-0.2,1-0.7,1.2c0.3,0.1,0-0.8,0.5-0.7c0.3,0.3,0.2,0.9,0.2,1.2
				l-0.2-0.1l0.3,0.8c0.3-0.2,0-0.9,0.6-0.6c0,0.2,0.6,0.6,0.4,0.8c-0.6,0.1-0.9,0.7-1.4,0.4c0.4,0.3,1.6,1.4,1.6,0.5l0.4,0.4
				c-0.1-0.5-0.4-1.6,0.5-0.8l-0.1,0.1l0.9,0.2l0,0.5c0.1-0.1,0.3-0.2,0.5,0c-0.1,0.2,0.1,0.5-0.1,0.7c0.7,0.5,0.9,0.2,1.1,0.1
				c0.4,0.3,0.5,0.5,0,0.7c0.2,0.2,0.6,0.5,0.9,0.8c0.3,0.3,0.6,0.6,0.7,0.9c0.9,0.2-0.1-0.2,0.6-0.3c0,0.8,0.6,1.2,1.4,1.6
				c0.8,0.3,1.8,0.6,2.5,0.8c0-1.2,0.4,0,1-0.8c-0.4,0.2,1.1,1.3-0.3,1.1c0,0,0.2,0,0.4,0.1c0.2,0,0.4,0.1,0.4,0.1
				c0.2,0.4-0.2,0.4-0.5,0.4c-0.3,0-0.7,0.1-0.4,0.6c0.5,0.1,0.9-0.1,1.4-0.2c0.5-0.1,0.9-0.2,1.4,0.1c-0.5,0.7,0.9-0.1,0.5,0.7
				c-0.3,0.2-0.6,0.1-0.9,0.1l0.2,0.2c2.1,0.6,0.8-0.8,1.9-1.1c1.2,0.1,0.9,0.7,0.9,1.1c0.2,0.2,0.8,0.1,1.2-0.1
				c-0.8,0.5-1.4-0.6-1-1c0.5,1,1.8,0.2,2.1-0.2c-0.8-0.5-1.1-0.5-1.4-0.6c-0.3,0-0.5-0.1-1.2-0.7c-0.2,0.2-0.3,1.1-1.2,0.6
				c0.6-0.3,0-0.4-0.1-0.6c0.1,0.5-0.7,0.1-1,0.2c-0.2-0.4,0.8-0.9-0.1-1.3l-0.4,1c-0.3-0.3,0.4-0.7-0.5-0.7
				c0.5-0.4,0.1-0.9,1.1-0.8c-0.5-0.6-0.9-0.6-1.4-0.5c-0.5,0.2-1,0.4-1.5,0.4c0.1,0,0.2-0.2,0.3-0.2c-0.3,0.2-0.6,0-0.9,0
				c-0.5-0.5,0.6-0.2,0.6-0.6c0,0-0.9-0.4-0.9-0.4c0,0,0-0.1,0-0.1c-0.3,0-0.6,0-0.5-0.3c0.4-0.2,0.7-0.5,1-0.6c0,0-0.3,0.1-0.6,0.1
				c-0.3,0.1-0.6,0.1-0.6,0.1c0.3-0.3-0.4-0.9,0.3-0.8c0,0-1.3-0.6-1.3-0.6l0.3-0.7c-0.4-0.1-0.4,0-0.1,0.3
				c-0.2-0.2-0.8-0.2-1.3-0.4c-0.5-0.2-0.8-0.4-0.2-0.9c-0.6-0.1-1-0.3-1.3-0.5c-0.4-0.2-0.7-0.5-1.4-0.8c1.2,0.2-0.3-1.5,0.7-0.9
				c-0.2-0.7-0.9-0.2-1.3-0.5c-0.1-0.6,0.6-0.9,1.1-0.7l-0.6-0.2l0.1-0.1l-0.7-0.1c-0.1-0.7,0.5-0.6,0.2-1.1l-0.6,0.3l0-0.5
				c-0.1,0.3-0.4,0.1-0.8-0.2l0.1-0.1l-0.4-0.3c0.6,0.2-0.2-0.5,0.3-0.6c-0.2-0.4-0.3-0.4-0.8-0.9l-0.3,0.4c-0.9-0.6,0.5-0.4,0-1.1
				l-0.4,0.3c0-1.5-1.6-1.4-1.6-2.5c0.4,0.4,0.8-0.1,0.7,0c-0.6-0.5-1.1-1.7-2.1-2c0.5-0.6,0.6-0.8,0.5-1.7
				c-0.3-0.5-0.4-0.5-0.9-0.5c0-0.6-0.9-1.4-0.5-1.7c-0.4,0.1-0.2-0.5-0.6-0.6l0.2-0.2l-0.4,0.3c0.5-1.4-1.4-1.3-1-2.6l0.2,0.1
				l-0.4-0.3c0.2-0.2,0.4-0.1,0.6-0.2l-0.8-1.9l-0.2,0.5c-0.2-0.4-0.8-0.4-0.7-1c1,0.4-0.3-0.6,0.2-1l0.4,0.3
				c-0.3-0.5-0.3-0.5-0.7-0.3c-0.5-0.6,0.7-0.9-0.1-1.3l0.2,0.5c-0.2,0.3-0.7,0.1-0.9-0.2c0-0.1,0.1-0.4,0.3-0.2
				c-0.4-0.5-0.6-1.4-0.9-1.6c0-0.4,0.4-0.4,0.6-0.3c-0.9-1-0.2-0.6-1.1-1.6l0.3-0.1L238,486l0.3-0.8l-0.3,0.4
				c-0.2-0.4-0.5-0.6-0.5-1.1l0.5,0c-0.7-1,0.1-1.6-0.9-2.4c0-0.1,0.2,0,0.3,0.1c-1-0.8,0.4-1-0.8-1.7c0.2,0,0.3-0.2,0.4-0.2
				l-0.4-0.4l0.6-0.2l-0.9-0.1l0.4-0.5l-0.3-0.1c0.8-0.9-0.2-1.3,0.3-2.3l-0.6,0.4c-2.1-1.2-0.7-4.2-2.2-6l0.6-0.2l-1-0.6
				c0.2-0.6,0.6,0.1,0.8-0.2c-0.7-0.8-0.9-0.1-1.5-1.1c0.1-0.7,0.5,0,0.8,0.2c-0.7-0.9-1.5-2.3-1.5-3.1c-0.1,0-0.2,0-0.2,0.1
				c-0.5-0.6-0.6-1.6-0.9-2.3c0.3-0.1,0.4,0.1,0.5,0.3c-0.1-0.3,0-0.7-0.4-0.8l0.6,0.1c-0.1-0.6-1-1.5-0.5-1.9
				c-0.2,0.2-0.6,0.3-0.8-0.2c0.7-0.6-0.9-1.2-0.8-2.2c0.2,0,0.5,0.6,0.5,0.4c0.1-0.5-0.5-0.7-0.9-0.9l0.4,0l-1.2-1.6
				c0.7-0.6-0.9-1.7-0.2-1.8c-0.3-0.7-0.1,0.7-0.6-0.1c0.2-0.4-0.5-0.7,0-0.9l0.1,0.1l-0.3-0.6l0.7,0.1c-0.3-0.5-1-0.6-1.4-0.4
				c0.1-0.6-0.5-1.2-0.1-1.6l0.2,0.1c-0.8-1.2,0.4-2.9-1-3.5c0-0.1,0.2-0.2,0.2,0l-0.4-0.8l0.5,0l-1.3-1.1l0.3-0.1
				c-0.4-1-1.3-2.3-2-3.4l0.2,0.1c-1.1-1-0.5-1.4-1.3-2.1c0.1,0,0.1,0,0.2,0l-0.5-0.8l0.4,0c-0.9-0.3-0.4-2.2-0.6-1.5
				c-0.5-0.2-1.1-0.6-1.5-0.5c-0.6-0.9,0.2-0.4,0-1.1c-0.4-0.7-0.9-0.5-1.3-1.5l0.2-0.2c-0.3-0.4-0.7-0.5-1.2-1l0.2,0.1
				c-1.2-0.5-0.3-1.7-1.8-1.6c-0.1-0.5-0.9-1.1-0.5-1.5c-0.6-0.4-1.2-0.8-1.8-1.2c-0.6-0.4-1.1-0.8-1.8-1.2c0.4-0.9-0.3-0.2-0.6-1.2
				l-0.3,0.4c-0.9-0.6-1.6-1.6-2.5-2.5c-0.9-0.9-1.9-1.8-3.2-2.2l0.1-0.5l-0.7,0.3c-0.6-0.3-1.3-0.7-2-1c-0.7-0.3-1.5-0.6-2.3-0.8
				c-0.8-0.2-1.5-0.4-2.2-0.5c-0.7-0.1-1.4-0.2-1.9-0.3c-0.8,0.2-1.9,0.7-3,0.6l0.1-0.1c-2,0.3-4.1,0.9-6.3,1.2
				c0.1-0.2-0.2-0.3,0-0.5c-0.4,0.7-1.3,0.4-1.7,0.5c0,0,0.2,0,0.3,0.1c0.2,0,0.3,0.1,0.3,0.1c-0.5,0.6-1.4,0.5-1.9,0.3
				c0,0-0.2,0.2-0.4,0.4c-0.2,0.2-0.3,0.5-0.3,0.5c-0.1,0-0.2,0-0.2-0.1l0,0.3l-0.8-0.4c-0.1,0.1-0.4,0.4-0.7,0.7
				c-0.3,0.3-0.6,0.7-0.6,1.1c-0.2-0.1-1.1,0.2-0.5-0.3c0,0-0.2,0.1-0.5,0.3c-0.3,0.2-0.7,0.4-1,0.6c-0.8,0.4-1.5,0.9-1.5,0.9
				l0.6-0.1c0.3,0.4-0.3,1.2-0.8,1.4c0.3-0.7-0.4-0.6-0.9-0.7c-0.2,0.5,0.6,0.1,0.6,0.5c-0.2,0.6-1,1.5-1.4,1.6l0.1-0.4
				c-0.5,0.6-1.3,0.2-1.8,0.8c-0.2,0.8-0.8,0.9-0.1,1.4c-0.5,0.8-0.7-0.1-1,0c0,0.6-1.1,1.4-1.5,1.3c0.6,1.2-2,1.7-1.2,2.5l-0.9,0.2
				c0.2,0.2,0.7,0.7,0.4,1.3c-0.6,0.3-0.9-0.1-1.3-0.2l0.7,0.9c-2.8,2-4.3,6-6.7,8.6c-0.5,1.5-0.9,3.4-1.8,4.9l0-0.2l-1,1.4l1-0.9
				c0,0.4,0,0.7-0.1,1.1c-1.2,1.5-2.7,3.6-3.1,5.9c0.6,1.8-1.4,0.5-1.1,2.1c-0.1-0.2-0.2-0.3-0.3-0.4c-0.2,1.6-0.3,2.4-0.2,4.1
				c-1.1-0.6-0.3,0.9-0.9,0.6l0.4,0.3c-0.4,0.2-0.8,0.9-1.1,0.7l0.3,0.8l-0.5-0.1c-0.4,0.8-0.7,2.7-1.8,2.7
				c-0.1,2.3-1.5,5.4-2.7,7.8c0.3,0.5,0,1.2-0.2,1.8l-0.8,0.4c-0.1,0.6,0.4,1.5-0.2,1.9c-0.1,0-0.1-0.1-0.1-0.1
				c-0.1,0.6-0.6,1.1-0.3,1.8c-0.3,0.6-0.8,1.1-1.3,0.7c0.9,0.5-0.7,1.3-0.7,1.3s-1,1.9-2.5,4.9c-1.5,2.9-3.6,6.9-5.9,10.6
				c-2.3,3.7-4.9,7.1-7.1,9.3c-1.1,1.1-2.2,2-3.2,2.9c-1,0.8-1.9,1.5-2.7,2.3c-0.2,0.5-0.8,0.9-0.5,1.4c-0.5,0.2-0.8-0.7-0.9-0.2
				c0.7,0.3-0.2,1.3,0.5,1.9l-0.5,0.1c-0.1,0.4,0.7-0.4,0.6,0.2l0.1-0.9c0.4,0.1,0.6,0.3,0.8,0.6c0.4-0.4,0.4-1.7,1.3-1.2l-0.2,0.1
				c0.7-0.1,0.5,0.5,0.7,0.6l-0.2,0l0.7,0.3c-0.5-0.2-1.1,0.7-0.8,0.6c0.9,0.1-0.3-0.2,0.4-0.4c0.4-0.1,0.4,0.4,0.4,0.7l0.7-0.2
				c0.1,0.4-0.5,0.1-0.1,0.5c0,0,0.8-0.7,0.8-0.7c0.2,0.5,0.5,0.3,0.7,0.1c0.2-0.2,0.5-0.5,0.9-0.1c-0.6,0.5,0.2,0.3,0.2,0.7
				c0,0,0.4-0.2,0.8-0.4c0.4-0.2,0.8-0.4,0.8-0.4c0.2,0.1-0.3,0.5-0.1,0.3c0.4,0.1,0.4-0.5,0.6-0.6c0.3,0.2,1.2-0.7,1.5,0
				c1.3-0.2,0-1.1,1.1-1.3c0.4,0.3-0.7,0.6,0,0.7c0,0,0.2-0.2,0.5-0.4c0.2-0.2,0.4-0.4,0.4-0.4c0,0.2,0.2,0.7-0.2,0.9
				c1.5-0.7,3-1,4.3-1.5c1.3-0.5,2.6-1.1,3.3-2.5c0.7,0,0.1,0.5,0.1,0.9c0.5-1.1,1.2-1.5,2-1.9c0.8-0.4,1.6-0.7,2.1-1.5l-0.3-0.3
				c2.7-1.4,3.7-4.6,5.6-6.9l-0.4,0.2c-0.2-0.6,0.1-1.1,0.2-1.7c0.2,0,0.7,0.7,0.9-0.1c-0.2,0.1-0.5,0.3-0.7,0.1
				c2.2-1.7,4.3-6.6,6.3-10c1.9-5.1,4.7-10.2,6.4-15.1c-0.3,0.7-1.1,0-0.7-0.4c2.3-0.8,0.7-2.7,2.5-3.8c0.6-3,3-4.9,2.8-7.9l0.5,0.1
				c0.4-0.3,0.1-0.5,0.2-0.9l0.1,0.1c0.6-0.9,0.6-2.2,1-2.6l-0.5-0.3c0.2-0.6,0.5-0.1,0.5-0.8l0.3,0.1l-0.2-0.9
				c0.9,0.5,0.8-1.5,1.4-1.7c0.2-0.8,0.4-2.3,1.1-3.2c0.6,0,1.2-1.2,1.8-1.9c0.7-1.6,1.7-3.8,3-5.4l-0.6-0.3l0.3-0.5
				c0.1,0.1,0.2,0.1,0.2,0.2c0.9,0.1,0.5-1.2,1.1-1.3c-0.6-0.1-0.3,0.3-0.5,0.5c-0.5,0.2-0.8-0.5-0.2-0.8l0.1,0.1l0-0.5
				c0.4,0.3,0.9,0.1,1.3,0.4c0.9-1.4,0.9-2.9,2.3-4c0.3,0.5,0.7-1,1.2,0c0.4-0.9-0.7-0.5-0.9-1.3c0.2-0.2,0.2-0.6,0.5-0.4
				c0.1,0.3,0.6,0.3,0.5,0.5c0,0,0.4-0.5,0.4-0.5c0.1,0,0.1,0.2,0.1,0.3c0.6-1.3,2.1-0.9,2.6-1.9c-0.1-0.4-0.4,0.1-0.5-0.2
				c0.2-0.6,0.6-0.6,0.8-0.5c0.3,0,0.6,0.1,0.9-0.3l0,0.5c0.1-0.4,0.1-0.9,0.7-0.7c0.3,0.5-0.2,0.6-0.3,0.9c0.3-0.1,1-0.5,0.6-1
				c0.3-0.3,0.6,0.1,0.8,0.2c0-0.1-0.5-0.3-0.3-0.6c0.3,0.1,0.6,0.1,1,0c0.3,0,0.7-0.1,1-0.1c0,0.1,0.1,0.4,0,0.4
				C192.6,435.8,192.7,437,193.3,436.8z"/>
			<path class="st12" d="M222,469.7l-0.1-0.4c-0.1,0-0.3,0.1-0.5,0L222,469.7z"/>
			<path class="st12" d="M214.5,451.8c-0.1,0-0.1,0-0.2-0.1C214.4,451.8,214.5,451.8,214.5,451.8z"/>
			<path class="st12" d="M211.4,448.3c0.3,0.2,0.3-0.1,0.3-0.3C211.6,448,211.5,448.1,211.4,448.3z"/>
			<path class="st12" d="M227.6,479.6c-0.1,0-0.2-0.1-0.3,0C227.4,479.7,227.5,479.7,227.6,479.6z"/>
			<path class="st12" d="M241.1,508.7c0-0.1,0-0.1,0-0.2C241.1,508.5,241.1,508.6,241.1,508.7z"/>
			<path class="st12" d="M240.9,506.6c0-0.1-0.1-0.2-0.3-0.3C240.7,506.5,240.8,506.6,240.9,506.6z"/>
			<path class="st12" d="M224.6,472.6c-0.1-0.1-0.1-0.2-0.3-0.2C224.4,472.6,224.5,472.6,224.6,472.6z"/>
			<path class="st12" d="M240.3,506.1l-0.2-0.4c0,0-0.1,0-0.1,0.1L240.3,506.1z"/>
			<path class="st12" d="M241.4,509.2c-0.1-0.2-0.2-0.4-0.3-0.5C241.1,508.9,241.2,509.1,241.4,509.2z"/>
			<path class="st12" d="M232.6,490C232.6,490,232.6,490,232.6,490C232.2,489.8,232.4,489.9,232.6,490z"/>
			<path class="st12" d="M238.4,504.9C238.4,504.9,238.4,504.9,238.4,504.9l-0.2-0.1L238.4,504.9z"/>
			<path class="st12" d="M242.4,511c-0.1-0.1-0.1-0.1-0.2-0.1c0,0.1,0.1,0.2,0.1,0.3C242.4,511,242.4,511,242.4,511z"/>
			<path class="st12" d="M234.6,496.5c0.2,0,0.4,0,0.5,0C235,496.3,234.9,496.3,234.6,496.5z"/>
		</g>
		<rect x="123.1" y="533.1" class="st13" width="141.7" height="3"/>
		<path class="st13" d="M194.5,523.4h-1v-4h1V523.4z M194.5,515.4h-1v-4h1V515.4z M194.5,507.4h-1v-4h1V507.4z M194.5,499.4h-1v-4h1
			V499.4z M194.5,491.4h-1v-4h1V491.4z M194.5,483.4h-1v-4h1V483.4z M194.5,475.4h-1v-4h1V475.4z M194.5,467.4h-1v-4h1V467.4z
			 M194.5,459.4h-1v-4h1V459.4z M194.5,451.4h-1v-4h1V451.4z M194.5,443.4h-1v-4h1V443.4z M194.5,435.4h-1v-4h1V435.4z M194.5,427.4
			h-1v-4h1V427.4z M194.5,419.4h-1v-4h1V419.4z M193.5,411.4L193.5,411.4l1-0.1L193.5,411.4z"/>
	</g>
	<g>
		<path class="st12" d="M491.8,522.4c-19.4,0-28.7-23.9-37.8-46.9c-8.4-21.5-17.1-43.8-33.1-43.8c-16,0-24.7,22.2-33.1,43.8
			c-9,23.1-18.3,46.9-37.8,46.9v-5c16,0,24.7-22.2,33.1-43.8c9-23.1,18.3-46.9,37.8-46.9c19.4,0,28.7,23.9,37.8,46.9
			c8.4,21.5,17.1,43.8,33.1,43.8V522.4z"/>
		<rect x="350.1" y="533.9" class="st13" width="141.7" height="3"/>
		<path class="st13" d="M421.4,524.2h-1v-4h1V524.2z M421.4,516.2h-1v-4h1V516.2z M421.4,508.2h-1v-4h1V508.2z M421.4,500.2h-1v-4h1
			V500.2z M421.4,492.2h-1v-4h1V492.2z M421.4,484.2h-1v-4h1V484.2z M421.4,476.2h-1v-4h1V476.2z M421.4,468.2h-1v-4h1V468.2z
			 M421.4,460.2h-1v-4h1V460.2z M421.4,452.2h-1v-4h1V452.2z M421.4,444.2h-1v-4h1V444.2z M421.4,436.2h-1v-4h1V436.2z M421.4,428.2
			h-1v-4h1V428.2z M421.4,420.2h-1v-4h1V420.2z M420.4,412.2L420.4,412.2l1-0.1L420.4,412.2z"/>
		<g>
			<path class="st13" d="M491.8,522.4c-2.6,0-4.9-1.3-7-3.7l3.8-3.2c1.6,1.9,2.8,1.9,3.2,1.9V522.4z"/>
			<path class="st13" d="M414.1,518.9c-2.1-2.4-4-6.2-5.8-11.4l4.7-1.6c1.6,4.6,3.2,7.9,4.8,9.8L414.1,518.9z M427.9,518.8l-3.8-3.2
				c1.6-1.9,3.2-5.2,4.8-9.8l4.7,1.6C431.8,512.6,429.9,516.3,427.9,518.8z M479.2,507.2c-1.1-3.2-2.1-7.1-3.2-11.7l4.9-1.2
				c1.1,4.5,2.1,8.2,3.1,11.3L479.2,507.2z M362.8,507.1l-4.7-1.6c1-3.1,2.1-6.8,3.1-11.3l4.9,1.2
				C364.9,500.1,363.8,503.9,362.8,507.1z M405.1,495.7c-0.8-3.3-1.6-7.1-2.5-11.8l4.9-1c0.9,4.6,1.7,8.3,2.5,11.6L405.1,495.7z
				 M436.8,495.6l-4.9-1.2c0.8-3.2,1.6-6.9,2.5-11.6l4.9,1C438.4,488.6,437.6,492.3,436.8,495.6z M473.4,483.8
				c-0.6-2.9-1.1-5.8-1.7-8.7l-0.6-3l4.9-1l0.6,3c0.6,2.9,1.1,5.8,1.7,8.7L473.4,483.8z M368.5,483.7l-4.9-1
				c0.6-2.8,1.1-5.7,1.7-8.6l0.6-3.1l4.9,1l-0.6,3.1C369.7,477.9,369.1,480.8,368.5,483.7z M400.2,472.2c-0.7-3.8-1.5-7.8-2.4-11.7
				l4.9-1.1c0.8,3.9,1.6,7.9,2.4,11.8L400.2,472.2z M441.7,472.1l-4.9-1c0.7-3.8,1.5-7.8,2.4-11.7l4.9,1.1
				C443.2,464.3,442.4,468.3,441.7,472.1z M468.7,460.4c-1-4.5-1.9-8.3-2.7-11.5l4.8-1.3c0.9,3.3,1.8,7.1,2.8,11.7L468.7,460.4z
				 M373.2,460.3l-4.9-1.1c1-4.6,1.9-8.5,2.8-11.7l4.8,1.3C375.1,452,374.2,455.8,373.2,460.3z M395.1,449
				c-1.2-4.6-2.5-8.1-3.7-10.9l4.5-2.1c1.4,3,2.7,6.8,4,11.7L395.1,449z M446.8,449l-4.8-1.3c1.3-4.8,2.6-8.7,4-11.7l4.5,2.1
				C449.3,440.8,448.1,444.4,446.8,449z M462.2,438c-1.3-2.9-3.4-6.3-5.8-6.3l0-5c4.1,0,7.5,3,10.4,9.2L462.2,438z M379.8,438
				l-4.5-2.1c2.9-6.1,6.2-9.1,10.3-9.1l0.2,0l-0.1,5l-0.1,0C383.2,431.7,381.1,435.1,379.8,438z"/>
			<path class="st13" d="M350.1,522.4v-5c0.4,0,1.5,0,3.2-1.9l3.8,3.2C355,521.2,352.6,522.4,350.1,522.4z"/>
		</g>
	</g>
	<g>
		<rect x="577.1" y="180.2" class="st13" width="141.7" height="3"/>
		<path class="st13" d="M648.4,170.4h-1v-4h1V170.4z M648.4,162.4h-1v-4h1V162.4z M648.4,154.4h-1v-4h1V154.4z M648.4,146.4h-1v-4h1
			V146.4z M648.4,138.4h-1v-4h1V138.4z M648.4,130.4h-1v-4h1V130.4z M648.4,122.4h-1v-4h1V122.4z M648.4,114.4h-1v-4h1V114.4z
			 M648.4,106.4h-1v-4h1V106.4z M648.4,98.4h-1v-4h1V98.4z M648.4,90.4h-1v-4h1V90.4z M648.4,82.4h-1v-4h1V82.4z M648.4,74.4h-1v-4
			h1V74.4z M648.4,66.4h-1v-4h1V66.4z M647.4,58.4L647.4,58.4l1-0.1L647.4,58.4z"/>
		<polygon class="st13" points="597.5,153.8 589.5,161.8 589.5,181.7 597.5,181.7 		"/>
		<polygon class="st13" points="609.6,129.7 601.6,145.7 601.6,181.7 609.6,181.7 		"/>
		<polygon class="st13" points="621.7,98.1 613.7,117.7 613.7,181.7 621.7,181.7 		"/>
		<polygon class="st13" points="633.8,80.8 625.8,91.7 625.8,181.7 633.8,181.7 		"/>
		<rect x="637.9" y="77.7" class="st13" width="8" height="104"/>
		<rect x="650" y="77.7" class="st13" width="8" height="104"/>
		<polygon class="st13" points="670.1,91.7 662.1,80.8 662.1,181.7 670.1,181.7 		"/>
		<polygon class="st13" points="682.2,117.7 674.2,98.1 674.2,181.7 682.2,181.7 		"/>
		<polygon class="st13" points="694.3,145.7 686.3,129.7 686.3,181.7 694.3,181.7 		"/>
		<polygon class="st13" points="706.3,161.8 698.3,153.8 698.3,181.7 706.3,181.7 		"/>
		<path class="st12" d="M718.8,168.7c-19.4,0-28.7-23.9-37.8-46.9c-8.4-21.5-17.1-43.8-33.1-43.8c-16,0-24.7,22.2-33.1,43.8
			c-9,23.1-18.3,46.9-37.8,46.9v-5c16,0,24.7-22.2,33.1-43.8c9-23.1,18.3-46.9,37.8-46.9c19.4,0,28.7,23.9,37.8,46.9
			c8.4,21.5,17.1,43.8,33.1,43.8V168.7z"/>
	</g>
</g>
</svg>
